Patient4_TMGait_0pt6_01_left_42_EMG.mot
version=1
nRows=33
nColumns=33
inDegrees=no
endheader
time	1LAddLong	2LGlutMax	3LGlutMed	4LIliopsoas	5LSemiMemb	6LBicFemLong	7LRecFem	8LVastMed	9LVastLat	10LGasMed	11LTibAnt	12lTibPost	13LPeroneusLong	14LSol	15LExtDigLong	16LFlexDigLong	17RAddLong	18RGlutMax	19RGlutMed	20RIliopsoas	21RSemiMemb	22RBicFemLong	23RRecFem	24RVastMed	25RVastLat	26RGasMed	27RTibAnt	28RTibPost	29RPeroneusLong	30RSol	31RExtDigLong	32RFlexDigLong
52.343	0.00946	-0.082855	-0.074005	0.003815	0.072632	0.12177	-0.028534	0.002594	0.056458	-0.081177	-0.098114	-0.00473	0.029907	-0.005493	-0.074921	0.002136	0.000305	-0.042267	0.1384	-0.01709	0.007935	-0.054321	0.008698	0.30807	0.073853	0.014648	-1.2946	-0.001526	0.14496	-0.3978	-0.005188	0.002441
52.344	0.002747	-0.083466	-0.051117	0.00061	0.064087	0.1445	-0.03067	0.00824	0.058746	-0.05249	0.14099	-0.013123	-0.017548	0.024567	-0.001984	-0.00412	0.017242	-0.080109	-0.070648	0.038757	0.036011	-0.031586	0.018616	0.34485	0.056	0.00412	-1.0747	-0.000305	-0.39093	-0.18494	-0.002136	-0.010681
52.345	-0.007172	-0.074615	-0.033569	0.00946	0.013733	0.20889	-0.015869	0.000305	0.06073	-0.035706	0.19959	0.002441	-0.084839	-0.032959	0.14023	-0.002747	0.016022	-0.050812	-0.032654	0.040283	0.014191	-0.01297	0.032501	0.2562	0.024567	0.003662	-0.7727	-0.001526	-0.35141	-0.14877	-0.003357	-0.005341
52.346	-0.001678	-0.058594	0.005035	0.013428	0.00824	0.18448	-0.035248	0.003662	0.058594	-0.036163	0.13565	-0.004272	-0.10269	-0.058289	0.45013	0	0.018005	-0.008698	-0.1329	-0.063629	-0.007782	0.054474	0.036011	0.05722	0.020294	0.002747	-0.76965	-0.003662	0.48752	-0.12573	-0.003357	-0.014038
52.347	-0.006866	-0.053864	-0.039063	0.021515	0.000916	0.070496	-0.055695	0.006866	0.044098	-0.036011	-0.25635	-0.021973	-0.093536	-0.063324	0.31494	0.006409	0.009003	-0.007629	-0.27023	-0.17578	-0.021973	0.063324	0.16312	0.004425	0.019989	0.006256	-0.92133	-0.006104	1.4662	-0.020294	-0.003815	-0.015411
52.348	-0.001984	-0.058136	-0.10361	0.016632	-0.0177	-0.065613	-0.050964	-0.00061	0.047455	-0.049438	-0.25604	-0.007477	-0.076294	-0.015869	0.002594	-0.004272	0.009613	-0.04303	-0.26657	-0.10269	0.018005	0.058594	0.077515	-0.019684	-0.024109	0.007019	-0.33417	-0.002899	0.4068	0.092316	-0.003967	-0.016022
52.349	0.012054	-0.061035	-0.16571	0.005646	0.036926	-0.103	-0.034027	0.004578	0.042419	-0.074615	-0.10117	-0.014038	-0.014343	0.003204	0.046387	-0.000305	0.002289	-0.071259	0.19867	0.027313	-0.020294	0.083008	0.084991	-0.088654	-0.13886	-0.015564	0.24216	-0.007477	-1.1185	0.17716	-0.005798	-0.02182
52.35	0.009003	-0.030975	-0.16602	0.007629	0.047302	-0.13428	-0.059357	0	0.048981	-0.079956	-0.002747	-0.009155	-0.044556	-0.092773	0.061188	-0.002594	-0.007019	-0.13733	0.091553	0.16434	-0.043945	0.099945	0.19272	-0.12665	-0.19547	-0.015564	0.003662	-0.006866	-0.93399	0.30228	-0.005951	-0.020142
52.351	0.007782	-0.009613	-0.061951	0.002899	-0.002899	-0.09552	-0.040283	-0.001984	0.042419	-0.098724	0.19608	-0.01297	-0.085602	-0.14908	-0.26688	0.003815	-0.004272	-0.11337	0.13245	0.13245	-0.004578	0.067291	0.10925	-0.050964	-0.067596	-0.011292	0.11429	-0.008087	0.34393	0.28259	-0.00473	-0.013275
52.352	0.003662	-0.007629	0.028229	0.006104	-0.072174	-0.1239	-0.058289	0.000305	0.036774	-0.070496	0.16754	-0.009308	-0.092773	-0.14191	-0.35812	0.007782	-0.001678	-0.086365	1.0481	0.009155	0.084229	0.042419	-0.050201	0.026855	0.057068	-0.009003	0.22476	-0.003052	0.159	0.33234	-0.005798	-0.014496
52.353	-0.003357	-0.024567	0.093231	0.005188	-0.057068	-0.18982	-0.053101	-0.001984	0.027161	-0.10086	0.10117	-0.015411	-0.10635	-0.17838	-0.27893	0.00351	0.007019	-0.11414	0.35324	0.06424	0.061798	0.022583	-0.068207	0.10727	0.13657	-0.014191	0.28915	-0.004578	0.039673	0.457	-0.004425	-0.013275
52.354	0.003204	-0.045471	0.12039	0.000305	-0.038605	-0.1767	-0.031891	0.009308	0.029297	-0.026398	-0.039825	-0.008087	-0.093384	-0.22522	-0.22095	-0.001526	0.013428	-0.12711	-0.53406	0.033875	-0.010681	-0.005493	0.11627	0.10788	0.12726	-0.017548	0.43137	-0.005798	0.26611	0.4071	-0.007019	-0.013123
52.355	-0.005646	-0.046082	0.072784	0.013733	-0.00351	-0.084686	-0.046082	0.005035	0.02594	-0.039673	-0.10483	-0.008698	-0.031891	-0.19516	-0.15015	0.000458	0.012817	-0.13214	-0.33539	-0.011749	-0.014191	0.005798	0.21271	0.11475	0.13626	-0.0177	0.62302	-0.006104	0.32028	0.30258	-0.003357	-0.009003
52.356	0.003967	-0.050812	0.029602	-0.005341	0.041351	0.078125	-0.05661	0.009003	0.016479	-0.037842	-0.11093	-0.008698	-0.006561	-0.042419	-0.011292	0.002899	0.00946	-0.17059	-0.003967	-0.007629	-0.010223	0.019531	0.24551	0.093994	0.084534	-0.017853	-0.072479	-0.002747	-0.16617	0.16113	-0.009918	-0.006104
52.357	0.006714	-0.061188	0.007477	0.009308	-0.004272	0.22461	-0.043945	0.01709	0.017853	0.002136	-0.031433	-0.02182	-0.061493	0.087128	0.25787	0.010376	0.008698	-0.15106	0.30029	0.068207	-0.024719	0.055542	0.2449	0.059509	-0.005493	-0.013275	-0.34485	-0.002899	0.10239	0.16037	-0.00412	-0.005493
52.358	-0.00473	-0.029144	-0.021515	0.008392	-0.056152	0.26566	-0.050659	0.010376	0.009918	0.015259	0.000153	-0.010071	-0.12344	0.10086	0.38757	0.020905	0.008545	-0.13092	0.22659	0.015259	-0.040436	0.054626	0.16434	0.00473	-0.050354	-0.016327	-0.15045	-0.002594	-0.47318	0.15442	-0.005341	-0.009308
52.359	-0.003662	-0.062714	-0.021515	0.014191	-0.018768	0.26611	-0.038605	0.009308	0.007629	0.029602	0.010681	-0.014801	-0.13473	0.021973	0.093536	0.013428	0.013428	-0.16129	-0.11612	0.031738	-0.061798	0.050812	0.13382	-0.014191	-0.020599	-0.010834	0.004578	0.002289	-0.47852	0.098724	-0.002441	-0.003662
52.36	-0.008087	-0.062866	-0.020752	-0.009613	0.041351	0.24979	-0.045776	0.008392	0.007935	-0.014954	-0.00473	-0.007019	-0.10132	-0.087585	-0.059967	0.012512	0.012512	-0.15823	-0.40756	-0.01358	-0.038147	0.049744	-0.000916	0.081787	-0.028076	-0.007172	-0.002289	-0.001678	-0.10544	-0.024872	0.000305	-0.005493
52.361	-0.00885	-0.040436	-0.043945	0.001831	0.055847	0.17761	-0.04303	0.014191	0.008392	-0.049133	-0.062103	-0.011292	-0.034332	-0.053864	-0.15656	0.010986	0.015564	-0.16953	-0.44891	-0.02243	0.010529	0.043488	-0.14465	-0.087738	-0.15442	-0.002747	0.028229	-0.001526	-0.47195	-0.16968	-0.001984	-0.007324
52.362	0.008087	-0.036926	-0.036163	0.007782	0.057678	0.049896	-0.037537	0.02182	0.015869	-0.033264	-0.083771	-0.015106	-0.040436	-0.028992	-0.14618	0.019226	0.012207	-0.20447	0.024109	0.006714	-0.016479	0.014038	-0.15259	-0.20035	-0.10391	-0.006714	0.12009	-0.002899	-0.65109	-0.2359	-0.001831	-0.018158
52.363	-0.006256	-0.037994	-0.030212	-0.002441	0.036011	-0.12787	-0.029755	0.012054	0.002594	0.021667	-0.036469	-0.013428	-0.069275	-0.073547	-0.075836	0.023041	0.00946	-0.20096	0.21545	-0.00351	-0.027924	0.02121	-0.29114	-0.14313	-0.070801	-0.011597	0.2536	0.006409	-0.52658	-0.14893	-0.001068	-0.01709
52.364	-0.001068	-0.056458	-0.045471	-0.006866	-0.013123	-0.37521	-0.036926	0.010071	0.015411	0.052185	0.005188	-0.016022	-0.084076	-0.10986	-0.017548	0.009918	0.013733	-0.24246	-0.08316	0.005798	-0.028229	0.016937	-0.29083	-0.084381	-0.11917	-0.012665	0.17441	-0.003357	-0.13611	-0.096893	-0.000458	-0.014801
52.365	0.011749	-0.037689	-0.072021	-0.008545	-0.017395	-0.32867	-0.04364	0.019226	0.004883	0.068665	0.009155	-0.00885	-0.080566	-0.17456	0.038452	0.016022	0.0177	-0.2359	-0.072632	-0.007324	-0.041809	0.035095	-0.075073	-0.064087	-0.094452	-0.014496	0.14008	-0.000305	-0.29221	-0.25314	-0.004578	-0.015564
52.366	0.005951	-0.037231	-0.092316	-0.001526	-0.003662	-0.20615	-0.053558	0.007019	0.01297	0.074921	0.010071	-0.014343	-0.066071	-0.087585	0.068207	0.011292	0.013733	-0.18921	-0.017242	0.013733	-0.05249	0.059662	-0.13718	0.025482	0.00885	-0.016937	-0.027924	-0.003662	0.098572	-0.27817	-0.003815	-0.014343
52.367	0.014801	-0.062714	-0.076141	0.022736	0.002594	-0.12085	-0.059662	0.00946	0.00351	0.048981	0.015564	-0.010834	-0.10208	0.014343	0.069122	0.018616	0.019836	-0.22858	-0.12604	0.041351	-0.037994	0.093994	-0.017242	-0.003052	0.12695	-0.019226	0.24323	0	0.28107	-0.23025	-0.002747	-0.012512
52.368	0.00824	-0.052643	-0.05661	0.016479	0.000916	-0.062103	-0.071259	0.014801	-0.004578	-0.14557	0.012512	-0.020447	-0.12985	-0.16724	0.054321	0.013733	0.020294	-0.25894	-0.15854	0.1091	-0.033569	0.17273	0.093842	0.009308	0.18372	-0.009155	0.56442	-0.002747	0.18585	-0.21408	-0.002136	-0.011597
52.369	-0.016327	-0.040436	-0.009918	0.005798	0.018921	-0.008392	-0.07019	0.010529	0.001221	-0.17777	0.012512	-0.005798	-0.11734	-0.27832	0.043793	0.017548	0.026245	-0.25101	-0.14679	0.11551	-0.051117	0.16083	0.097809	0.13184	0.18433	0.000458	0.37827	-0.001068	0.52765	-0.32288	-0.003204	-0.008545
52.37	0.000763	-0.068665	-0.031433	0.001526	0.005951	0.070801	-0.10147	0.031738	0.001678	-0.088501	0.0354	-0.00946	-0.093689	-0.27679	0.0354	0.012207	0.033264	-0.23621	-0.088043	0.099792	-0.04425	0.13123	0.071411	0.14603	0.11551	0.01236	-0.60043	-0.000458	0.18768	-0.45471	-0.006561	-0.000458
52.371	-0.001373	-0.10407	-0.050964	0.027008	-0.033569	0.14023	-0.095978	-0.002899	0.005646	-0.0737	0.061646	-0.006866	-0.094452	-0.18768	0.028381	0.016479	0.027008	-0.18646	-0.027618	0.067291	-0.048218	0.061035	0.005951	0.040131	0.010071	0.007019	-1.1725	-0.002441	-1.0287	-0.44678	-0.002136	-0.002441
52.372	0.006409	-0.11185	-0.050659	0.01236	-0.10239	0.11337	-0.099792	0.036316	-0.006409	-0.059662	0.058594	-0.005951	-0.098724	-0.019379	0.02533	0.010681	0.020447	-0.16113	0.0177	0.025787	-0.044708	-0.018921	-0.15533	-0.046539	-0.02243	0	-0.55039	-0.002289	-0.15457	-0.27603	-0.001526	-0.001373
52.373	0.007935	-0.12772	-0.038452	-0.002441	-0.067596	0.044098	-0.1265	0.020142	0.001984	-0.069275	-0.016937	-0.010681	-0.079041	0.049438	0.014343	0.012512	0.011902	-0.17273	0.071106	0.001678	-0.024719	-0.030212	-0.36011	-0.020447	-0.052643	0.001526	-0.36697	-0.002289	-0.60043	-0.090179	-0.000916	-0.006561
52.374	0.013733	-0.10269	-0.065918	0.008392	0.026703	0.047302	-0.12772	0.018463	0.010986	-0.085602	-0.018463	-0.001068	-0.062256	-0.011292	0.027161	0.007782	0.011902	-0.23041	-0.21255	-0.031128	0.1207	-0.1091	-0.16388	0.012054	0.020905	0.011597	0.002136	-0.001221	-1.0922	-0.12299	-0.001984	-0.009003
52.375	0.02655	-0.10101	-0.056305	0.018158	0.072632	0.037079	-0.1294	0.014343	0.003967	-0.050964	-0.037079	-0.014191	-0.079346	-0.039215	0.008392	0.003052	0.034027	-0.1828	-0.68909	-0.051727	0.078278	-0.11887	0.14694	-0.055237	0.033875	0.005188	0.28564	-0.00885	-0.69107	-0.07782	0.00061	-0.002289
